<mxfile host="Electron" agent="Mozilla/5.0 (Windows NT 10.0; Win64; x64) AppleWebKit/537.36 (KHTML, like Gecko) draw.io/24.7.17 Chrome/128.0.6613.36 Electron/32.0.1 Safari/537.36" version="24.7.17">
  <diagram name="第 1 页" id="7DxcFVDrj47M20yJ348c">
    <mxGraphModel dx="3341" dy="3322" grid="1" gridSize="10" guides="1" tooltips="1" connect="1" arrows="1" fold="1" page="1" pageScale="1" pageWidth="827" pageHeight="1169" math="0" shadow="0">
      <root>
        <mxCell id="0" />
        <mxCell id="1" parent="0" />
        <mxCell id="MeM4-qoNuwvBvF4ycvGe-32" value="" style="ellipse;whiteSpace=wrap;html=1;aspect=fixed;fillStyle=auto;dashed=1;strokeWidth=4;fillColor=default;" vertex="1" parent="1">
          <mxGeometry x="-240" y="-2100" width="1140" height="1140" as="geometry" />
        </mxCell>
        <mxCell id="RpdtVfm5vgKX0qxy2V18-30" style="edgeStyle=orthogonalEdgeStyle;rounded=0;orthogonalLoop=1;jettySize=auto;html=1;" parent="1" source="RpdtVfm5vgKX0qxy2V18-1" target="RpdtVfm5vgKX0qxy2V18-3" edge="1">
          <mxGeometry relative="1" as="geometry" />
        </mxCell>
        <mxCell id="RpdtVfm5vgKX0qxy2V18-31" style="edgeStyle=orthogonalEdgeStyle;rounded=0;orthogonalLoop=1;jettySize=auto;html=1;" parent="1" source="RpdtVfm5vgKX0qxy2V18-1" target="RpdtVfm5vgKX0qxy2V18-4" edge="1">
          <mxGeometry relative="1" as="geometry" />
        </mxCell>
        <mxCell id="RpdtVfm5vgKX0qxy2V18-32" style="edgeStyle=orthogonalEdgeStyle;rounded=0;orthogonalLoop=1;jettySize=auto;html=1;" parent="1" source="RpdtVfm5vgKX0qxy2V18-1" target="RpdtVfm5vgKX0qxy2V18-5" edge="1">
          <mxGeometry relative="1" as="geometry" />
        </mxCell>
        <mxCell id="RpdtVfm5vgKX0qxy2V18-1" value="脉冲星导航系统关键模块" style="rounded=0;whiteSpace=wrap;html=1;fontSize=20;" parent="1" vertex="1">
          <mxGeometry x="200" y="40" width="240" height="100" as="geometry" />
        </mxCell>
        <mxCell id="RpdtVfm5vgKX0qxy2V18-3" value="信号检测模块" style="rounded=0;whiteSpace=wrap;html=1;fontSize=20;dashed=1;" parent="1" vertex="1">
          <mxGeometry x="-80" y="190" width="240" height="100" as="geometry" />
        </mxCell>
        <mxCell id="RpdtVfm5vgKX0qxy2V18-4" value="时间同步模块" style="rounded=0;whiteSpace=wrap;html=1;fontSize=20;dashed=1;" parent="1" vertex="1">
          <mxGeometry x="200" y="190" width="240" height="100" as="geometry" />
        </mxCell>
        <mxCell id="RpdtVfm5vgKX0qxy2V18-5" value="位置计算模块" style="rounded=0;whiteSpace=wrap;html=1;fontSize=20;dashed=1;" parent="1" vertex="1">
          <mxGeometry x="480" y="190" width="240" height="100" as="geometry" />
        </mxCell>
        <mxCell id="RpdtVfm5vgKX0qxy2V18-33" style="edgeStyle=orthogonalEdgeStyle;rounded=0;orthogonalLoop=1;jettySize=auto;html=1;" parent="1" source="RpdtVfm5vgKX0qxy2V18-6" target="RpdtVfm5vgKX0qxy2V18-7" edge="1">
          <mxGeometry relative="1" as="geometry" />
        </mxCell>
        <mxCell id="RpdtVfm5vgKX0qxy2V18-34" style="edgeStyle=orthogonalEdgeStyle;rounded=0;orthogonalLoop=1;jettySize=auto;html=1;" parent="1" source="RpdtVfm5vgKX0qxy2V18-6" target="RpdtVfm5vgKX0qxy2V18-12" edge="1">
          <mxGeometry relative="1" as="geometry" />
        </mxCell>
        <mxCell id="RpdtVfm5vgKX0qxy2V18-35" style="edgeStyle=orthogonalEdgeStyle;rounded=0;orthogonalLoop=1;jettySize=auto;html=1;entryX=0.5;entryY=0;entryDx=0;entryDy=0;" parent="1" source="RpdtVfm5vgKX0qxy2V18-6" target="RpdtVfm5vgKX0qxy2V18-8" edge="1">
          <mxGeometry relative="1" as="geometry" />
        </mxCell>
        <mxCell id="RpdtVfm5vgKX0qxy2V18-6" value="宇宙环境检测模块" style="rounded=0;whiteSpace=wrap;html=1;fontSize=20;" parent="1" vertex="1">
          <mxGeometry x="200" y="330" width="240" height="100" as="geometry" />
        </mxCell>
        <mxCell id="RpdtVfm5vgKX0qxy2V18-7" value="宇宙大尺度观测系统（引力波等）" style="rounded=0;whiteSpace=wrap;html=1;fontSize=20;dashed=1;" parent="1" vertex="1">
          <mxGeometry x="-80" y="470" width="240" height="100" as="geometry" />
        </mxCell>
        <mxCell id="RpdtVfm5vgKX0qxy2V18-8" value="中等尺度（恒星系内）观测系统" style="rounded=0;whiteSpace=wrap;html=1;fontSize=20;dashed=1;" parent="1" vertex="1">
          <mxGeometry x="200" y="470" width="240" height="100" as="geometry" />
        </mxCell>
        <mxCell id="RpdtVfm5vgKX0qxy2V18-9" value="可观测暨大尺度宇宙事件星体数据库" style="rounded=0;whiteSpace=wrap;html=1;fontSize=20;" parent="1" vertex="1">
          <mxGeometry x="-80" y="590" width="110" height="120" as="geometry" />
        </mxCell>
        <mxCell id="RpdtVfm5vgKX0qxy2V18-10" value="跨星系通讯模块" style="rounded=0;whiteSpace=wrap;html=1;fontSize=20;" parent="1" vertex="1">
          <mxGeometry x="50" y="590" width="110" height="120" as="geometry" />
        </mxCell>
        <mxCell id="RpdtVfm5vgKX0qxy2V18-11" value="基于大范围可观测事件的宇宙共识通讯机制" style="rounded=0;whiteSpace=wrap;html=1;fontSize=20;dashed=1;" parent="1" vertex="1">
          <mxGeometry x="200" y="870" width="240" height="100" as="geometry" />
        </mxCell>
        <mxCell id="RpdtVfm5vgKX0qxy2V18-12" value="小尺度（行星）观测及导航系统" style="rounded=0;whiteSpace=wrap;html=1;fontSize=20;dashed=1;" parent="1" vertex="1">
          <mxGeometry x="480" y="470" width="240" height="100" as="geometry" />
        </mxCell>
        <mxCell id="RpdtVfm5vgKX0qxy2V18-38" style="edgeStyle=orthogonalEdgeStyle;rounded=0;orthogonalLoop=1;jettySize=auto;html=1;" parent="1" source="RpdtVfm5vgKX0qxy2V18-13" target="RpdtVfm5vgKX0qxy2V18-20" edge="1">
          <mxGeometry relative="1" as="geometry" />
        </mxCell>
        <mxCell id="RpdtVfm5vgKX0qxy2V18-39" value="" style="edgeStyle=orthogonalEdgeStyle;rounded=0;orthogonalLoop=1;jettySize=auto;html=1;" parent="1" source="RpdtVfm5vgKX0qxy2V18-13" target="RpdtVfm5vgKX0qxy2V18-11" edge="1">
          <mxGeometry relative="1" as="geometry" />
        </mxCell>
        <mxCell id="RpdtVfm5vgKX0qxy2V18-40" style="edgeStyle=orthogonalEdgeStyle;rounded=0;orthogonalLoop=1;jettySize=auto;html=1;entryX=0.5;entryY=0;entryDx=0;entryDy=0;" parent="1" source="RpdtVfm5vgKX0qxy2V18-13" target="RpdtVfm5vgKX0qxy2V18-14" edge="1">
          <mxGeometry relative="1" as="geometry" />
        </mxCell>
        <mxCell id="RpdtVfm5vgKX0qxy2V18-13" value="基础宇宙信息交换服务" style="rounded=0;whiteSpace=wrap;html=1;fontSize=20;" parent="1" vertex="1">
          <mxGeometry x="200" y="750" width="240" height="100" as="geometry" />
        </mxCell>
        <mxCell id="RpdtVfm5vgKX0qxy2V18-14" value="宇宙事件触发及广播系统" style="rounded=0;whiteSpace=wrap;html=1;fontSize=20;strokeColor=default;dashed=1;" parent="1" vertex="1">
          <mxGeometry x="480" y="870" width="240" height="100" as="geometry" />
        </mxCell>
        <mxCell id="RpdtVfm5vgKX0qxy2V18-15" value="系内星体活动数据库" style="rounded=0;whiteSpace=wrap;html=1;fontSize=20;" parent="1" vertex="1">
          <mxGeometry x="200" y="590" width="110" height="120" as="geometry" />
        </mxCell>
        <mxCell id="RpdtVfm5vgKX0qxy2V18-16" value="近实时信号交换模块" style="rounded=0;whiteSpace=wrap;html=1;fontSize=20;" parent="1" vertex="1">
          <mxGeometry x="330" y="590" width="110" height="120" as="geometry" />
        </mxCell>
        <mxCell id="RpdtVfm5vgKX0qxy2V18-17" value="行星活动数据库" style="rounded=0;whiteSpace=wrap;html=1;fontSize=20;" parent="1" vertex="1">
          <mxGeometry x="480" y="590" width="110" height="120" as="geometry" />
        </mxCell>
        <mxCell id="RpdtVfm5vgKX0qxy2V18-18" value="实时信号交换模块" style="rounded=0;whiteSpace=wrap;html=1;fontSize=20;" parent="1" vertex="1">
          <mxGeometry x="610" y="590" width="110" height="120" as="geometry" />
        </mxCell>
        <mxCell id="RpdtVfm5vgKX0qxy2V18-20" value="宇宙事件触检测与解释模块" style="rounded=0;whiteSpace=wrap;html=1;fontSize=20;dashed=1;" parent="1" vertex="1">
          <mxGeometry x="-80" y="870" width="240" height="100" as="geometry" />
        </mxCell>
        <mxCell id="RpdtVfm5vgKX0qxy2V18-22" value="脉冲星信号调制系统" style="rounded=0;whiteSpace=wrap;html=1;fontSize=20;fillColor=#f8cecc;strokeColor=#b85450;" parent="1" vertex="1">
          <mxGeometry x="480" y="990" width="110" height="120" as="geometry" />
        </mxCell>
        <mxCell id="RpdtVfm5vgKX0qxy2V18-23" value="引力波调制系统" style="rounded=0;whiteSpace=wrap;html=1;fontSize=20;fillColor=#f8cecc;strokeColor=#b85450;" parent="1" vertex="1">
          <mxGeometry x="610" y="990" width="110" height="120" as="geometry" />
        </mxCell>
        <mxCell id="RpdtVfm5vgKX0qxy2V18-24" value="" style="endArrow=classic;html=1;rounded=0;strokeWidth=11;" parent="1" edge="1">
          <mxGeometry width="50" height="50" relative="1" as="geometry">
            <mxPoint x="-120" as="sourcePoint" />
            <mxPoint x="-120" y="1210" as="targetPoint" />
          </mxGeometry>
        </mxCell>
        <mxCell id="RpdtVfm5vgKX0qxy2V18-25" value="" style="endArrow=classic;html=1;rounded=0;strokeWidth=11;" parent="1" edge="1">
          <mxGeometry width="50" height="50" relative="1" as="geometry">
            <mxPoint x="-120" as="sourcePoint" />
            <mxPoint x="950" as="targetPoint" />
          </mxGeometry>
        </mxCell>
        <mxCell id="RpdtVfm5vgKX0qxy2V18-28" value="此方向覆盖范围增加" style="rounded=0;whiteSpace=wrap;html=1;fontSize=20;fillColor=default;strokeColor=none;" parent="1" vertex="1">
          <mxGeometry x="700" y="-130" width="240" height="100" as="geometry" />
        </mxCell>
        <mxCell id="RpdtVfm5vgKX0qxy2V18-29" value="此方向技术难度增加" style="rounded=0;whiteSpace=wrap;html=1;fontSize=20;strokeColor=none;" parent="1" vertex="1">
          <mxGeometry x="-400" y="1080" width="240" height="100" as="geometry" />
        </mxCell>
        <mxCell id="MeM4-qoNuwvBvF4ycvGe-7" value="" style="group" vertex="1" connectable="0" parent="1">
          <mxGeometry x="500" y="-1660" width="80" height="80" as="geometry" />
        </mxCell>
        <mxCell id="MeM4-qoNuwvBvF4ycvGe-1" value="" style="ellipse;whiteSpace=wrap;html=1;aspect=fixed;fillColor=#1ba1e2;strokeColor=#006EAF;fontColor=#ffffff;" vertex="1" parent="MeM4-qoNuwvBvF4ycvGe-7">
          <mxGeometry width="80" height="80" as="geometry" />
        </mxCell>
        <mxCell id="MeM4-qoNuwvBvF4ycvGe-2" value="" style="ellipse;shape=cloud;whiteSpace=wrap;html=1;fillColor=#d5e8d4;strokeColor=#82b366;" vertex="1" parent="MeM4-qoNuwvBvF4ycvGe-7">
          <mxGeometry y="10" width="30" height="60" as="geometry" />
        </mxCell>
        <mxCell id="MeM4-qoNuwvBvF4ycvGe-4" value="" style="ellipse;shape=cloud;whiteSpace=wrap;html=1;fillColor=#d5e8d4;strokeColor=#82b366;" vertex="1" parent="MeM4-qoNuwvBvF4ycvGe-7">
          <mxGeometry x="20" y="10" width="40" height="40" as="geometry" />
        </mxCell>
        <mxCell id="MeM4-qoNuwvBvF4ycvGe-5" value="" style="ellipse;shape=cloud;whiteSpace=wrap;html=1;fillColor=#d5e8d4;strokeColor=#82b366;" vertex="1" parent="MeM4-qoNuwvBvF4ycvGe-7">
          <mxGeometry x="40" width="30" height="30" as="geometry" />
        </mxCell>
        <mxCell id="MeM4-qoNuwvBvF4ycvGe-6" value="" style="ellipse;whiteSpace=wrap;html=1;aspect=fixed;fillColor=none;strokeWidth=3;" vertex="1" parent="MeM4-qoNuwvBvF4ycvGe-7">
          <mxGeometry width="80" height="80" as="geometry" />
        </mxCell>
        <mxCell id="MeM4-qoNuwvBvF4ycvGe-8" value="" style="ellipse;whiteSpace=wrap;html=1;aspect=fixed;fillColor=#f8cecc;strokeColor=#b85450;strokeWidth=9;" vertex="1" parent="1">
          <mxGeometry x="310" y="-1500" width="40" height="40" as="geometry" />
        </mxCell>
        <mxCell id="MeM4-qoNuwvBvF4ycvGe-10" value="" style="ellipse;whiteSpace=wrap;html=1;aspect=fixed;fillColor=#fff2cc;strokeColor=#d6b656;strokeWidth=9;" vertex="1" parent="1">
          <mxGeometry x="-1380" y="-1440" width="40" height="40" as="geometry" />
        </mxCell>
        <mxCell id="MeM4-qoNuwvBvF4ycvGe-12" value="" style="ellipse;whiteSpace=wrap;html=1;aspect=fixed;fillColor=#e1d5e7;strokeColor=#9673a6;container=0;" vertex="1" parent="1">
          <mxGeometry x="-1300" y="-1620" width="80" height="80" as="geometry" />
        </mxCell>
        <mxCell id="MeM4-qoNuwvBvF4ycvGe-13" value="" style="ellipse;shape=cloud;whiteSpace=wrap;html=1;fillColor=#ffe6cc;strokeColor=#d79b00;container=0;" vertex="1" parent="1">
          <mxGeometry x="-1300" y="-1610" width="30" height="60" as="geometry" />
        </mxCell>
        <mxCell id="MeM4-qoNuwvBvF4ycvGe-14" value="" style="ellipse;shape=cloud;whiteSpace=wrap;html=1;fillColor=#ffe6cc;strokeColor=#d79b00;container=0;" vertex="1" parent="1">
          <mxGeometry x="-1280" y="-1610" width="40" height="40" as="geometry" />
        </mxCell>
        <mxCell id="MeM4-qoNuwvBvF4ycvGe-15" value="" style="ellipse;shape=cloud;whiteSpace=wrap;html=1;fillColor=#ffe6cc;strokeColor=#d79b00;container=0;" vertex="1" parent="1">
          <mxGeometry x="-1260" y="-1620" width="30" height="30" as="geometry" />
        </mxCell>
        <mxCell id="MeM4-qoNuwvBvF4ycvGe-16" value="" style="ellipse;whiteSpace=wrap;html=1;aspect=fixed;fillColor=none;strokeWidth=3;container=0;fontColor=#333333;strokeColor=#666666;fillStyle=auto;" vertex="1" parent="1">
          <mxGeometry x="-1300" y="-1620" width="80" height="80" as="geometry" />
        </mxCell>
        <mxCell id="MeM4-qoNuwvBvF4ycvGe-17" value="" style="ellipse;whiteSpace=wrap;html=1;aspect=fixed;fillColor=#f5f5f5;fontColor=#333333;strokeColor=#666666;dashed=1;strokeWidth=5;" vertex="1" parent="1">
          <mxGeometry x="140" y="-1840" width="50" height="50" as="geometry" />
        </mxCell>
        <mxCell id="MeM4-qoNuwvBvF4ycvGe-18" value="" style="ellipse;whiteSpace=wrap;html=1;aspect=fixed;fillColor=#f5f5f5;fontColor=#333333;strokeColor=#666666;dashed=1;strokeWidth=3;" vertex="1" parent="1">
          <mxGeometry x="360" y="-1560" width="30" height="30" as="geometry" />
        </mxCell>
        <mxCell id="MeM4-qoNuwvBvF4ycvGe-19" value="" style="ellipse;whiteSpace=wrap;html=1;aspect=fixed;fillColor=#f5f5f5;fontColor=#333333;strokeColor=#666666;dashed=1;strokeWidth=3;" vertex="1" parent="1">
          <mxGeometry x="430" y="-1250" width="50" height="50" as="geometry" />
        </mxCell>
        <mxCell id="MeM4-qoNuwvBvF4ycvGe-20" value="" style="ellipse;whiteSpace=wrap;html=1;aspect=fixed;fillColor=#f5f5f5;fontColor=#333333;strokeColor=#666666;dashed=1;strokeWidth=6;" vertex="1" parent="1">
          <mxGeometry x="60" y="-1440" width="80" height="80" as="geometry" />
        </mxCell>
        <mxCell id="MeM4-qoNuwvBvF4ycvGe-21" value="" style="ellipse;whiteSpace=wrap;html=1;aspect=fixed;fillColor=#f5f5f5;fontColor=#333333;strokeColor=#666666;dashed=1;strokeWidth=6;" vertex="1" parent="1">
          <mxGeometry x="285" y="-2030" width="140" height="140" as="geometry" />
        </mxCell>
        <mxCell id="MeM4-qoNuwvBvF4ycvGe-25" value="" style="ellipse;whiteSpace=wrap;html=1;aspect=fixed;fillColor=#f5f5f5;fontColor=#333333;strokeColor=#666666;dashed=1;strokeWidth=6;" vertex="1" parent="1">
          <mxGeometry x="-280" y="-1670" width="80" height="80" as="geometry" />
        </mxCell>
        <mxCell id="MeM4-qoNuwvBvF4ycvGe-30" value="" style="group" vertex="1" connectable="0" parent="1">
          <mxGeometry x="30" y="-1250" width="300" height="80" as="geometry" />
        </mxCell>
        <mxCell id="MeM4-qoNuwvBvF4ycvGe-22" value="" style="ellipse;whiteSpace=wrap;html=1;aspect=fixed;fillColor=#f5f5f5;fontColor=#333333;strokeColor=#666666;dashed=1;strokeWidth=5;" vertex="1" parent="MeM4-qoNuwvBvF4ycvGe-30">
          <mxGeometry x="110" width="80" height="80" as="geometry" />
        </mxCell>
        <mxCell id="MeM4-qoNuwvBvF4ycvGe-24" value="" style="endArrow=none;html=1;rounded=0;curved=1;exitX=0;exitY=0.5;exitDx=0;exitDy=0;strokeWidth=3;" edge="1" parent="MeM4-qoNuwvBvF4ycvGe-30">
          <mxGeometry width="50" height="50" relative="1" as="geometry">
            <mxPoint x="110" y="50" as="sourcePoint" />
            <mxPoint x="190" y="50" as="targetPoint" />
            <Array as="points">
              <mxPoint y="70" />
              <mxPoint x="300" y="60" />
            </Array>
          </mxGeometry>
        </mxCell>
        <mxCell id="MeM4-qoNuwvBvF4ycvGe-33" value="" style="endArrow=classic;startArrow=classic;html=1;rounded=0;exitX=1;exitY=0.5;exitDx=0;exitDy=0;strokeWidth=7;entryX=0.996;entryY=0.535;entryDx=0;entryDy=0;entryPerimeter=0;" edge="1" parent="1" source="MeM4-qoNuwvBvF4ycvGe-8" target="MeM4-qoNuwvBvF4ycvGe-32">
          <mxGeometry width="50" height="50" relative="1" as="geometry">
            <mxPoint x="640" y="-1450" as="sourcePoint" />
            <mxPoint x="690" y="-1500" as="targetPoint" />
          </mxGeometry>
        </mxCell>
        <mxCell id="MeM4-qoNuwvBvF4ycvGe-34" value="&lt;font style=&quot;font-size: 35px;&quot;&gt;100 AU&lt;/font&gt;" style="text;html=1;align=center;verticalAlign=middle;whiteSpace=wrap;rounded=0;rotation=0;" vertex="1" parent="1">
          <mxGeometry x="540" y="-1470" width="200" height="40" as="geometry" />
        </mxCell>
        <mxCell id="MeM4-qoNuwvBvF4ycvGe-35" value="" style="endArrow=none;html=1;rounded=0;fillColor=#d80073;strokeColor=#FF0000;strokeWidth=6;" edge="1" parent="1">
          <mxGeometry width="50" height="50" relative="1" as="geometry">
            <mxPoint x="-1240" y="-1610" as="sourcePoint" />
            <mxPoint x="810" y="-680" as="targetPoint" />
          </mxGeometry>
        </mxCell>
        <mxCell id="MeM4-qoNuwvBvF4ycvGe-36" value="" style="endArrow=none;html=1;rounded=0;fillColor=#d80073;strokeColor=#FF0000;strokeWidth=6;" edge="1" parent="1">
          <mxGeometry width="50" height="50" relative="1" as="geometry">
            <mxPoint x="-1240" y="-1610" as="sourcePoint" />
            <mxPoint x="810" y="-2280" as="targetPoint" />
          </mxGeometry>
        </mxCell>
        <mxCell id="MeM4-qoNuwvBvF4ycvGe-37" value="" style="endArrow=none;html=1;rounded=0;strokeWidth=9;" edge="1" parent="1">
          <mxGeometry width="50" height="50" relative="1" as="geometry">
            <mxPoint x="-1300" y="-750" as="sourcePoint" />
            <mxPoint x="-1300" y="-860" as="targetPoint" />
          </mxGeometry>
        </mxCell>
        <mxCell id="MeM4-qoNuwvBvF4ycvGe-39" value="" style="endArrow=classic;startArrow=classic;html=1;rounded=0;exitX=1;exitY=0.5;exitDx=0;exitDy=0;strokeWidth=7;" edge="1" parent="1">
          <mxGeometry width="50" height="50" relative="1" as="geometry">
            <mxPoint x="-1300" y="-800" as="sourcePoint" />
            <mxPoint x="330" y="-800" as="targetPoint" />
          </mxGeometry>
        </mxCell>
        <mxCell id="MeM4-qoNuwvBvF4ycvGe-40" value="&lt;font style=&quot;font-size: 35px;&quot;&gt;268137 AU&lt;/font&gt;" style="text;html=1;align=center;verticalAlign=middle;whiteSpace=wrap;rounded=0;rotation=0;" vertex="1" parent="1">
          <mxGeometry x="-720" y="-780" width="200" height="40" as="geometry" />
        </mxCell>
        <mxCell id="MeM4-qoNuwvBvF4ycvGe-42" value="" style="endArrow=none;html=1;rounded=0;strokeWidth=9;" edge="1" parent="1">
          <mxGeometry width="50" height="50" relative="1" as="geometry">
            <mxPoint x="330" y="-750" as="sourcePoint" />
            <mxPoint x="330" y="-860" as="targetPoint" />
          </mxGeometry>
        </mxCell>
        <mxCell id="MeM4-qoNuwvBvF4ycvGe-45" value="" style="endArrow=classic;startArrow=classic;html=1;rounded=0;curved=1;" edge="1" parent="1">
          <mxGeometry width="50" height="50" relative="1" as="geometry">
            <mxPoint x="-1040" y="-1520" as="sourcePoint" />
            <mxPoint x="-1040" y="-1680" as="targetPoint" />
            <Array as="points">
              <mxPoint x="-970" y="-1600" />
            </Array>
          </mxGeometry>
        </mxCell>
        <mxCell id="MeM4-qoNuwvBvF4ycvGe-46" value="&lt;span style=&quot;font-size: 35px;&quot;&gt;3.73 * 10^-4 rad&lt;/span&gt;" style="text;html=1;align=center;verticalAlign=middle;whiteSpace=wrap;rounded=0;rotation=0;" vertex="1" parent="1">
          <mxGeometry x="-1000" y="-1620" width="300" height="40" as="geometry" />
        </mxCell>
        <mxCell id="MeM4-qoNuwvBvF4ycvGe-48" value="" style="ellipse;whiteSpace=wrap;html=1;aspect=fixed;fillColor=#f5f5f5;fontColor=#333333;strokeColor=#666666;" vertex="1" parent="1">
          <mxGeometry x="1540" y="-1750" width="80" height="80" as="geometry" />
        </mxCell>
        <mxCell id="MeM4-qoNuwvBvF4ycvGe-50" value="" style="ellipse;whiteSpace=wrap;html=1;aspect=fixed;fillColor=#f5f5f5;fontColor=#333333;strokeColor=#666666;" vertex="1" parent="1">
          <mxGeometry x="1620" y="-1750" width="80" height="80" as="geometry" />
        </mxCell>
        <mxCell id="MeM4-qoNuwvBvF4ycvGe-51" value="" style="ellipse;whiteSpace=wrap;html=1;aspect=fixed;fillColor=#f5f5f5;fontColor=#333333;strokeColor=#666666;" vertex="1" parent="1">
          <mxGeometry x="1700" y="-1753" width="80" height="80" as="geometry" />
        </mxCell>
        <mxCell id="MeM4-qoNuwvBvF4ycvGe-52" value="" style="ellipse;whiteSpace=wrap;html=1;aspect=fixed;fillColor=#f5f5f5;fontColor=#333333;strokeColor=#666666;" vertex="1" parent="1">
          <mxGeometry x="1500" y="-1680" width="80" height="80" as="geometry" />
        </mxCell>
        <mxCell id="MeM4-qoNuwvBvF4ycvGe-53" value="" style="ellipse;whiteSpace=wrap;html=1;aspect=fixed;fillColor=#f5f5f5;fontColor=#333333;strokeColor=#666666;" vertex="1" parent="1">
          <mxGeometry x="1580" y="-1680" width="80" height="80" as="geometry" />
        </mxCell>
        <mxCell id="MeM4-qoNuwvBvF4ycvGe-54" value="" style="ellipse;whiteSpace=wrap;html=1;aspect=fixed;fillColor=#f5f5f5;fontColor=#333333;strokeColor=#666666;" vertex="1" parent="1">
          <mxGeometry x="1660" y="-1680" width="80" height="80" as="geometry" />
        </mxCell>
        <mxCell id="MeM4-qoNuwvBvF4ycvGe-55" value="" style="ellipse;whiteSpace=wrap;html=1;aspect=fixed;fillColor=#f5f5f5;fontColor=#333333;strokeColor=#666666;" vertex="1" parent="1">
          <mxGeometry x="1740" y="-1680" width="80" height="80" as="geometry" />
        </mxCell>
        <mxCell id="MeM4-qoNuwvBvF4ycvGe-56" value="" style="ellipse;whiteSpace=wrap;html=1;aspect=fixed;fillColor=#f5f5f5;fontColor=#333333;strokeColor=#666666;" vertex="1" parent="1">
          <mxGeometry x="1540" y="-1610" width="80" height="80" as="geometry" />
        </mxCell>
        <mxCell id="MeM4-qoNuwvBvF4ycvGe-57" value="" style="ellipse;whiteSpace=wrap;html=1;aspect=fixed;fillColor=#f5f5f5;fontColor=#333333;strokeColor=#666666;" vertex="1" parent="1">
          <mxGeometry x="1620" y="-1610" width="80" height="80" as="geometry" />
        </mxCell>
        <mxCell id="MeM4-qoNuwvBvF4ycvGe-58" value="" style="ellipse;whiteSpace=wrap;html=1;aspect=fixed;fillColor=#f5f5f5;fontColor=#333333;strokeColor=#666666;" vertex="1" parent="1">
          <mxGeometry x="1700" y="-1610" width="80" height="80" as="geometry" />
        </mxCell>
        <mxCell id="MeM4-qoNuwvBvF4ycvGe-60" value="" style="ellipse;whiteSpace=wrap;html=1;aspect=fixed;fillColor=#f5f5f5;fontColor=#333333;strokeColor=#666666;" vertex="1" parent="1">
          <mxGeometry x="1580" y="-1540" width="80" height="80" as="geometry" />
        </mxCell>
        <mxCell id="MeM4-qoNuwvBvF4ycvGe-61" value="" style="ellipse;whiteSpace=wrap;html=1;aspect=fixed;fillColor=#f5f5f5;fontColor=#333333;strokeColor=#666666;" vertex="1" parent="1">
          <mxGeometry x="1660" y="-1540" width="80" height="80" as="geometry" />
        </mxCell>
        <mxCell id="MeM4-qoNuwvBvF4ycvGe-63" value="" style="ellipse;whiteSpace=wrap;html=1;aspect=fixed;fillColor=#f5f5f5;fontColor=#333333;strokeColor=#666666;" vertex="1" parent="1">
          <mxGeometry x="1580" y="-1820" width="80" height="80" as="geometry" />
        </mxCell>
        <mxCell id="MeM4-qoNuwvBvF4ycvGe-64" value="" style="ellipse;whiteSpace=wrap;html=1;aspect=fixed;fillColor=#f5f5f5;fontColor=#333333;strokeColor=#666666;" vertex="1" parent="1">
          <mxGeometry x="1660" y="-1830" width="80" height="80" as="geometry" />
        </mxCell>
        <mxCell id="MeM4-qoNuwvBvF4ycvGe-65" value="" style="ellipse;whiteSpace=wrap;html=1;aspect=fixed;fillColor=#f5f5f5;fontColor=#333333;strokeColor=#666666;" vertex="1" parent="1">
          <mxGeometry x="1740" y="-1820" width="80" height="80" as="geometry" />
        </mxCell>
        <mxCell id="MeM4-qoNuwvBvF4ycvGe-66" value="" style="ellipse;whiteSpace=wrap;html=1;aspect=fixed;fillColor=#d5e8d4;strokeColor=#82b366;" vertex="1" parent="1">
          <mxGeometry x="1780" y="-1750" width="80" height="80" as="geometry" />
        </mxCell>
        <mxCell id="MeM4-qoNuwvBvF4ycvGe-71" value="" style="ellipse;whiteSpace=wrap;html=1;aspect=fixed;fillColor=#f5f5f5;fontColor=#333333;strokeColor=#666666;" vertex="1" parent="1">
          <mxGeometry x="1780" y="-1610" width="80" height="80" as="geometry" />
        </mxCell>
        <mxCell id="MeM4-qoNuwvBvF4ycvGe-72" value="" style="ellipse;whiteSpace=wrap;html=1;aspect=fixed;fillColor=#f5f5f5;fontColor=#333333;strokeColor=#666666;" vertex="1" parent="1">
          <mxGeometry x="1740" y="-1540" width="80" height="80" as="geometry" />
        </mxCell>
        <mxCell id="MeM4-qoNuwvBvF4ycvGe-79" value="" style="ellipse;whiteSpace=wrap;html=1;aspect=fixed;fillColor=#f5f5f5;fontColor=#333333;strokeColor=#666666;" vertex="1" parent="1">
          <mxGeometry x="1820" y="-1680" width="80" height="80" as="geometry" />
        </mxCell>
        <mxCell id="MeM4-qoNuwvBvF4ycvGe-47" value="" style="ellipse;whiteSpace=wrap;html=1;aspect=fixed;fillColor=none;strokeWidth=6;" vertex="1" parent="1">
          <mxGeometry x="1500" y="-1840" width="395" height="395" as="geometry" />
        </mxCell>
        <mxCell id="MeM4-qoNuwvBvF4ycvGe-101" value="" style="endArrow=none;html=1;rounded=0;" edge="1" parent="1">
          <mxGeometry width="50" height="50" relative="1" as="geometry">
            <mxPoint x="1790" y="-1740" as="sourcePoint" />
            <mxPoint x="2030" y="-2050" as="targetPoint" />
          </mxGeometry>
        </mxCell>
        <mxCell id="MeM4-qoNuwvBvF4ycvGe-102" value="" style="endArrow=none;html=1;rounded=0;" edge="1" parent="1">
          <mxGeometry width="50" height="50" relative="1" as="geometry">
            <mxPoint x="1828" y="-1670.87" as="sourcePoint" />
            <mxPoint x="2260" y="-1660" as="targetPoint" />
          </mxGeometry>
        </mxCell>
        <mxCell id="MeM4-qoNuwvBvF4ycvGe-80" value="" style="ellipse;whiteSpace=wrap;html=1;aspect=fixed;fillColor=#f5f5f5;fontColor=#333333;strokeColor=#666666;" vertex="1" parent="1">
          <mxGeometry x="1980" y="-1970" width="80" height="80" as="geometry" />
        </mxCell>
        <mxCell id="MeM4-qoNuwvBvF4ycvGe-81" value="" style="ellipse;whiteSpace=wrap;html=1;aspect=fixed;fillColor=#f5f5f5;fontColor=#333333;strokeColor=#666666;" vertex="1" parent="1">
          <mxGeometry x="2060" y="-1970" width="80" height="80" as="geometry" />
        </mxCell>
        <mxCell id="MeM4-qoNuwvBvF4ycvGe-82" value="" style="ellipse;whiteSpace=wrap;html=1;aspect=fixed;fillColor=#f5f5f5;fontColor=#333333;strokeColor=#666666;" vertex="1" parent="1">
          <mxGeometry x="2140" y="-1973" width="80" height="80" as="geometry" />
        </mxCell>
        <mxCell id="MeM4-qoNuwvBvF4ycvGe-83" value="" style="ellipse;whiteSpace=wrap;html=1;aspect=fixed;fillColor=#f5f5f5;fontColor=#333333;strokeColor=#666666;" vertex="1" parent="1">
          <mxGeometry x="1940" y="-1900" width="80" height="80" as="geometry" />
        </mxCell>
        <mxCell id="MeM4-qoNuwvBvF4ycvGe-84" value="" style="ellipse;whiteSpace=wrap;html=1;aspect=fixed;fillColor=#f5f5f5;fontColor=#333333;strokeColor=#666666;" vertex="1" parent="1">
          <mxGeometry x="2020" y="-1900" width="80" height="80" as="geometry" />
        </mxCell>
        <mxCell id="MeM4-qoNuwvBvF4ycvGe-85" value="" style="ellipse;whiteSpace=wrap;html=1;aspect=fixed;fillColor=#f5f5f5;fontColor=#333333;strokeColor=#666666;" vertex="1" parent="1">
          <mxGeometry x="2100" y="-1900" width="80" height="80" as="geometry" />
        </mxCell>
        <mxCell id="MeM4-qoNuwvBvF4ycvGe-86" value="" style="ellipse;whiteSpace=wrap;html=1;aspect=fixed;fillColor=#f5f5f5;fontColor=#333333;strokeColor=#666666;" vertex="1" parent="1">
          <mxGeometry x="2180" y="-1900" width="80" height="80" as="geometry" />
        </mxCell>
        <mxCell id="MeM4-qoNuwvBvF4ycvGe-87" value="" style="ellipse;whiteSpace=wrap;html=1;aspect=fixed;fillColor=#f5f5f5;fontColor=#333333;strokeColor=#666666;" vertex="1" parent="1">
          <mxGeometry x="1980" y="-1830" width="80" height="80" as="geometry" />
        </mxCell>
        <mxCell id="MeM4-qoNuwvBvF4ycvGe-88" value="" style="ellipse;whiteSpace=wrap;html=1;aspect=fixed;fillColor=#f5f5f5;fontColor=#333333;strokeColor=#666666;" vertex="1" parent="1">
          <mxGeometry x="2060" y="-1830" width="80" height="80" as="geometry" />
        </mxCell>
        <mxCell id="MeM4-qoNuwvBvF4ycvGe-89" value="" style="ellipse;whiteSpace=wrap;html=1;aspect=fixed;fillColor=#f8cecc;strokeColor=#b85450;" vertex="1" parent="1">
          <mxGeometry x="2140" y="-1830" width="80" height="80" as="geometry" />
        </mxCell>
        <mxCell id="MeM4-qoNuwvBvF4ycvGe-90" value="" style="ellipse;whiteSpace=wrap;html=1;aspect=fixed;fillColor=#f5f5f5;fontColor=#333333;strokeColor=#666666;" vertex="1" parent="1">
          <mxGeometry x="2020" y="-1760" width="80" height="80" as="geometry" />
        </mxCell>
        <mxCell id="MeM4-qoNuwvBvF4ycvGe-91" value="" style="ellipse;whiteSpace=wrap;html=1;aspect=fixed;fillColor=#f5f5f5;fontColor=#333333;strokeColor=#666666;" vertex="1" parent="1">
          <mxGeometry x="2100" y="-1760" width="80" height="80" as="geometry" />
        </mxCell>
        <mxCell id="MeM4-qoNuwvBvF4ycvGe-92" value="" style="ellipse;whiteSpace=wrap;html=1;aspect=fixed;fillColor=#f5f5f5;fontColor=#333333;strokeColor=#666666;" vertex="1" parent="1">
          <mxGeometry x="2020" y="-2040" width="80" height="80" as="geometry" />
        </mxCell>
        <mxCell id="MeM4-qoNuwvBvF4ycvGe-93" value="" style="ellipse;whiteSpace=wrap;html=1;aspect=fixed;fillColor=#f5f5f5;fontColor=#333333;strokeColor=#666666;" vertex="1" parent="1">
          <mxGeometry x="2100" y="-2050" width="80" height="80" as="geometry" />
        </mxCell>
        <mxCell id="MeM4-qoNuwvBvF4ycvGe-94" value="" style="ellipse;whiteSpace=wrap;html=1;aspect=fixed;fillColor=#f5f5f5;fontColor=#333333;strokeColor=#666666;" vertex="1" parent="1">
          <mxGeometry x="2180" y="-2040" width="80" height="80" as="geometry" />
        </mxCell>
        <mxCell id="MeM4-qoNuwvBvF4ycvGe-95" value="" style="ellipse;whiteSpace=wrap;html=1;aspect=fixed;fillColor=#f5f5f5;strokeColor=#666666;fontColor=#333333;" vertex="1" parent="1">
          <mxGeometry x="2220" y="-1970" width="80" height="80" as="geometry" />
        </mxCell>
        <mxCell id="MeM4-qoNuwvBvF4ycvGe-96" value="" style="ellipse;whiteSpace=wrap;html=1;aspect=fixed;fillColor=#f5f5f5;fontColor=#333333;strokeColor=#666666;" vertex="1" parent="1">
          <mxGeometry x="2220" y="-1830" width="80" height="80" as="geometry" />
        </mxCell>
        <mxCell id="MeM4-qoNuwvBvF4ycvGe-97" value="" style="ellipse;whiteSpace=wrap;html=1;aspect=fixed;fillColor=#f5f5f5;fontColor=#333333;strokeColor=#666666;" vertex="1" parent="1">
          <mxGeometry x="2180" y="-1760" width="80" height="80" as="geometry" />
        </mxCell>
        <mxCell id="MeM4-qoNuwvBvF4ycvGe-98" value="" style="ellipse;whiteSpace=wrap;html=1;aspect=fixed;fillColor=#f5f5f5;fontColor=#333333;strokeColor=#666666;" vertex="1" parent="1">
          <mxGeometry x="2260" y="-1900" width="80" height="80" as="geometry" />
        </mxCell>
        <mxCell id="MeM4-qoNuwvBvF4ycvGe-99" value="" style="ellipse;whiteSpace=wrap;html=1;aspect=fixed;fillColor=none;strokeWidth=6;strokeColor=#82b366;" vertex="1" parent="1">
          <mxGeometry x="1940" y="-2060" width="395" height="395" as="geometry" />
        </mxCell>
      </root>
    </mxGraphModel>
  </diagram>
</mxfile>
